Coordinates
version=1
nRows=20
nColumns=34
inDegrees=yes

Units are S.I. units (second, meters, Newtons, ...)
If the header above contains a line with 'inDegrees', this indicates whether rotational values are in degrees (yes) or radians (no).

endheader
time	pelvis_tilt	pelvis_list	pelvis_rotation	pelvis_tx	pelvis_ty	pelvis_tz	hip_flexion_r	hip_adduction_r	hip_rotation_r	knee_angle_r	ankle_angle_r	subtalar_angle_r	mtp_angle_r	hip_flexion_l	hip_adduction_l	hip_rotation_l	knee_angle_l	ankle_angle_l	subtalar_angle_l	mtp_angle_l	lumbar_extension	lumbar_bending	lumbar_rotation	arm_flex_r	arm_add_r	arm_rot_r	elbow_flex_r	pro_sup_r	arm_flex_l	arm_add_l	arm_rot_l	elbow_flex_l	pro_sup_l
      0.00000000	      1.27895001	      2.47568961	     -1.07106503	      0.00291464	      1.22731156	     -0.03528660	     -2.37427053	      0.42915475	     -3.97490795	      9.97758585	     18.94209413	      0.71766750	      0.00000000	     -2.42212716	     -0.56711233	     -8.62150497	     12.98641988	     19.86061654	     10.77624047	      0.00000000	     -7.44213661	     -1.26137816	     -0.06314395	     12.94073613	    -11.24890045	     29.75529863	     18.88725180	     75.97358018	      8.59950805	     -9.82676136	     28.08209762	     17.84645721	     59.08480417
      0.01666670	     -1.39116894	      2.76651230	     -1.11498264	      0.00587990	      1.21973753	     -0.03623092	      0.81365945	      0.48033435	     -3.54408963	     10.29388618	     21.03258448	      2.05950029	      0.00000000	      0.57806386	      0.27746120	     -9.77417582	     13.97131161	     20.04059515	     12.48194080	      0.00000000	     -3.27662540	     -1.16866744	     -0.34830906	     11.90110986	    -10.01163998	     26.91005067	     14.97317727	     75.47520463	      6.60488055	     -9.33479442	     27.06979830	     16.94860108	     59.46906301
      0.03333330	     -2.11834305	      3.25398865	     -1.64392498	      0.00280723	      1.21428071	     -0.03477029	      1.75058046	      0.09436936	     -3.66544416	      9.69346968	     21.58769941	      2.35655052	      0.00000000	      1.83565583	      0.61041642	    -11.01537478	     15.02469874	     21.37301226	     13.48637675	      0.00000000	     -2.09631762	     -1.89560587	      0.28967791	     10.75408878	     -9.17921282	     25.38450546	     13.81173532	     75.34616192	      5.64519097	     -9.29072146	     26.18568993	     16.29830701	     59.56889488
      0.05000000	     -1.77902928	      3.60171725	     -1.85923145	     -0.00103938	      1.21515312	     -0.03319595	      1.45454899	     -0.17889789	     -3.69387681	      9.50410098	     21.75552699	      2.64460526	      0.00000000	      1.74703816	      0.92263006	    -11.44706628	     15.64060180	     21.93786208	     13.76030926	      0.00000000	     -2.42118506	     -2.40888646	      0.72510565	      9.35765743	     -8.35793224	     19.10092509	     12.98315288	     74.93883310	      5.14088804	     -8.94992601	     22.35281003	     14.78832035	     59.89237354
      0.06666670	     -1.94422360	      3.81126086	     -1.81206659	     -0.00679838	      1.21839007	     -0.03218726	      1.79715452	     -0.23976398	     -3.66081340	      9.45320722	     21.59614332	      2.64196064	      0.00000000	      2.63247315	      1.02298145	    -11.27889667	     16.78456612	     22.23553229	     13.65275422	      0.00000000	     -2.53424819	     -2.63984223	      1.15302014	      7.93867070	     -8.30192626	     18.87527588	     12.83976797	     75.12916417	      4.59646030	     -9.02494449	     22.14197399	     15.02415353	     60.03771593
      0.08333330	     -1.80497666	      3.98045135	     -1.68776895	     -0.00529354	      1.22019601	     -0.02994058	      1.38219814	     -0.28632025	     -3.92355118	      9.33272360	     21.19543072	      2.55917631	      0.00000000	      3.08800651	      0.91950131	    -11.66962729	     17.77664562	     21.83279478	     13.51587196	      0.00000000	     -2.77727893	     -2.79493955	      1.19626905	      6.70148290	     -8.08652562	     18.81044831	     12.56105242	     75.16304294	      3.60666629	     -9.05432513	     22.09217094	     14.79969729	     60.05402308
      0.10000000	     -2.00834844	      3.99224689	     -1.31235072	     -0.00534450	      1.21792611	     -0.03034405	      1.32356960	     -0.13043737	     -4.29089482	      9.11260848	     20.44185333	      2.35987109	      0.00000000	      3.94014879	      0.71130412	    -11.52841378	     18.58059048	     21.91163380	     13.74310277	      0.00000000	     -2.52055637	     -2.67473496	      1.28150430	      5.20834381	     -8.04614659	     18.49725792	     12.41899538	     75.20532329	      2.39648182	     -8.88942788	     21.89703867	     14.91823155	     60.06089300
      0.11666670	     -2.26529787	      3.92602450	     -0.91990356	     -0.01020443	      1.21497053	     -0.02888406	      1.64624835	      0.15225830	     -4.39472446	      9.15234606	     20.19961454	      1.91208641	      0.00000000	      5.04722293	      0.35165413	    -11.46182245	     19.72648663	     22.16096077	     13.91012605	      0.00000000	     -2.31258890	     -2.47561683	      1.28542669	      3.90006863	     -8.03362074	     18.06581136	     12.77353060	     75.25874404	      1.02430664	     -8.94832705	     21.58892710	     15.63127132	     60.03114042
      0.13333330	     -2.58278117	      3.92748290	     -0.66573955	     -0.01300865	      1.21827852	     -0.02925324	      2.15720002	      0.29645727	     -4.40500751	      9.10958601	     19.81516266	      1.67736222	      0.00000000	      5.91544918	      0.19026508	    -11.47610095	     20.15173902	     21.76405599	     14.11675456	      0.00000000	     -1.97912537	     -2.30575192	      1.29871618	      2.62165344	     -8.06730587	     17.76086378	     13.38049578	     75.37724325	     -0.52484685	     -9.12404162	     21.29736491	     16.87546983	     59.99450672
      0.15000000	     -2.90301083	      3.93103849	     -0.21704894	     -0.01370242	      1.22271259	     -0.03007528	      2.70657512	      0.36309433	     -4.66870160	      8.94985522	     19.42653816	      1.14070560	      0.00000000	      6.67558882	      0.08220502	    -11.31694043	     20.54274229	     21.44567083	     13.81446037	      0.00000000	     -1.82991704	     -2.19836675	      0.97207174	      1.47777959	     -8.02169893	     17.63223273	     14.40898070	     75.67086321	     -2.36941567	     -9.43364838	     21.01556429	     18.68268384	     59.97532272
      0.16666670	     -2.78307868	      3.98127509	      0.02447621	     -0.01631175	      1.22111854	     -0.03070109	      2.78319411	      0.33696823	     -4.73215661	      8.93245880	     19.33564149	      1.11241978	      0.00000000	      6.86857111	      0.09939773	    -11.37467334	     20.74072112	     21.22436348	     13.84966868	      0.00000000	     -2.28461499	     -2.04846170	      1.09552249	      0.83202447	     -7.97089152	     17.67170397	     14.26038424	     75.69351356	     -3.17889984	     -9.44432079	     21.04105889	     18.54630124	     59.97573758
      0.18333330	     -3.35035992	      3.90958869	      0.63377746	     -0.01736881	      1.21894963	     -0.03128262	      3.54777111	      0.39869501	     -5.17491122	      8.83773054	     18.91532506	      0.64852584	      0.00000000	      8.05587642	     -0.06096272	    -11.29037510	     21.41923480	     20.93046080	     13.70739548	      0.00000000	     -1.75276676	     -1.83207728	      0.56109816	     -0.29823980	     -8.24146034	     18.23596242	     16.01461990	     76.20120988	     -5.13600670	    -10.02518664	     21.05476086	     21.17708842	     60.10378985
      0.20000000	     -3.27435883	      3.92294214	      0.90416263	     -0.01760814	      1.22465872	     -0.02987311	      3.50984670	      0.41476787	     -5.36277463	      8.69492263	     18.64561686	      0.63101115	      0.00000000	      8.30917163	     -0.15282238	    -11.47083249	     21.84206510	     20.12887360	     13.78467238	      0.00000000	     -2.00121920	     -1.69536376	      0.57012778	     -0.75507829	     -8.18426089	     18.37868810	     16.13107384	     76.29073290	     -5.75006856	    -10.20980115	     21.05363123	     21.33144125	     60.12267910
      0.21666670	     -3.31254926	      3.94922656	      1.13917533	     -0.01992397	      1.22236051	     -0.02973271	      3.61787538	      0.40076283	     -5.57282638	      8.64280296	     18.47818926	      0.53043312	      0.00000000	      8.93794711	     -0.27622730	    -11.64634445	     22.57721057	     19.77988373	     13.67377695	      0.00000000	     -2.22828020	     -1.57713172	      0.48069569	     -1.02471613	     -8.22795328	     18.60890671	     16.59623668	     76.42404750	     -6.33874975	    -10.54386579	     21.06853669	     21.77150413	     60.17518901
      0.23333330	     -3.76754134	      3.96901675	      1.27405342	     -0.02202200	      1.21820286	     -0.02938869	      4.26944359	      0.39338756	     -5.61970528	      8.83135393	     18.47124990	      0.23563640	      0.00000000	     10.12688617	     -0.39320245	    -11.58312820	     23.62490870	     19.87707378	     13.47088321	      0.00000000	     -2.02740829	     -1.52484760	      0.10401065	     -1.50695457	     -8.75076013	     19.75490047	     18.58145674	     77.02976636	     -7.76120573	    -11.24902514	     21.06753235	     24.06485516	     60.45620801
      0.25000000	     -3.63018897	      4.04918598	      1.33606985	     -0.02048319	      1.21788554	     -0.02925417	      4.08712038	      0.32278860	     -5.66769483	      8.82206562	     18.59190152	      0.20216816	      0.00000000	     10.60115561	     -0.50464190	    -11.86352146	     24.54240508	     19.87946472	     13.43884130	      0.00000000	     -2.43577956	     -1.47266429	      0.20522954	     -1.41090236	     -8.84892970	     19.86384588	     18.65662885	     77.08316346	     -7.84609090	    -11.52103053	     21.00021613	     24.12227420	     60.47818649
      0.26666670	     -3.50522715	      4.13458690	      1.32556510	     -0.02282535	      1.21684648	     -0.02861370	      3.92750144	      0.24003991	     -5.81264376	      8.82857836	     18.67847821	      0.13480249	      0.00000000	     11.25202124	     -0.67316514	    -12.20735582	     25.97625636	     19.96954007	     13.49629190	      0.00000000	     -2.83328018	     -1.45628340	      0.34497632	     -1.05594002	     -9.02444180	     19.97348814	     18.84649627	     77.13760568	     -7.85561009	    -11.81122349	     20.92669547	     24.22339753	     60.50791272
      0.28333330	     -3.47425592	      4.00404264	      1.45577724	     -0.02544473	      1.22170819	     -0.02791713	      3.80505054	      0.41715304	     -6.03031229	      8.70440760	     18.58307817	      0.14957236	      0.00000000	     12.14152686	     -1.15041312	    -12.43978093	     27.77017942	     20.21065140	     14.04549855	      0.00000000	     -3.07309179	     -1.14853588	      0.33705482	     -0.60229586	     -9.41523287	     20.35368084	     19.28281412	     77.29506160	     -7.82100825	    -12.00805940	     20.79402233	     24.60162880	     60.62933965
      0.30000000	     -3.30353548	      4.01640610	      1.64223650	     -0.02499865	      1.21852238	     -0.02873064	      3.49525926	      0.42819198	     -6.18245428	      8.51418739	     18.58306421	      0.13250369	      0.00000000	     12.91914564	     -1.48292870	    -12.64800563	     29.61178635	     20.40561901	     14.31111371	      0.00000000	     -3.36655660	     -1.14899754	      0.38324644	      0.05250029	     -9.55739743	     20.55907189	     19.58119952	     77.37376915	     -7.41444401	    -12.33020119	     20.64603332	     24.78136926	     60.70203974
      0.31666670	     -3.06263985	      3.96374871	      1.85179578	     -0.02476367	      1.21511991	     -0.02823508	      3.12124009	      0.49791463	     -6.27841487	      8.25348340	     18.78172536	      0.12450635	      0.00000000	     13.70563424	     -1.96193979	    -12.78458174	     31.76362700	     21.03555247	     14.77783177	      0.00000000	     -3.78658589	     -0.97682469	      0.38057398	      0.78151164	     -9.88172840	     20.80625807	     19.81095403	     77.45889798	     -6.84454713	    -12.48788976	     20.46228626	     24.94002684	     60.80509248
